<?xml version="1.0" encoding="utf-8"?>
<!-- Generator: Adobe Illustrator 15.0.0, SVG Export Plug-In . SVG Version: 6.00 Build 0)  -->
<!DOCTYPE svg PUBLIC "-//W3C//DTD SVG 1.1//EN" "http://www.w3.org/Graphics/SVG/1.1/DTD/svg11.dtd">
<svg version="1.1" id="Layer_1" xmlns="http://www.w3.org/2000/svg" xmlns:xlink="http://www.w3.org/1999/xlink" x="0px" y="0px"
	 width="371.34px" height="204.09px" viewBox="0 0 371.34 204.09" enable-background="new 0 0 371.34 204.09" xml:space="preserve">
<g>
	<g>
		
			<rect x="76.831" y="30.778" transform="matrix(0.7071 -0.7071 0.7071 0.7071 -1.1255 67.8392)" fill-rule="evenodd" clip-rule="evenodd" fill="#FFFFFF" width="8.999" height="9"/>
		
			<rect x="106.431" y="39.863" transform="matrix(0.7071 -0.7071 0.7071 0.7071 1.4857 90.5441)" fill-rule="evenodd" clip-rule="evenodd" fill="#FFFFFF" width="7.232" height="7.231"/>
		
			<rect x="31.383" y="43.821" transform="matrix(0.7072 -0.7071 0.7071 0.7072 -22.9222 37.7458)" fill-rule="evenodd" clip-rule="evenodd" fill="#FFFFFF" width="5.447" height="5.447"/>
		
			<rect x="81.729" y="9.002" transform="matrix(0.7071 -0.7071 0.7071 0.7071 17.0895 61.5938)" fill-rule="evenodd" clip-rule="evenodd" fill="#FFFFFF" width="2.331" height="2.331"/>
		
			<rect x="23.079" y="13.352" transform="matrix(0.7071 -0.7071 0.7071 0.7071 -3.1642 21.396)" fill-rule="evenodd" clip-rule="evenodd" fill="#FFFFFF" width="2.331" height="2.331"/>
		
			<rect x="61.38" y="38.802" transform="matrix(0.7071 -0.7071 0.7071 0.7071 -9.9424 55.9326)" fill-rule="evenodd" clip-rule="evenodd" fill="#FFFFFF" width="2.331" height="2.331"/>
		
			<rect x="123.979" y="16.252" transform="matrix(0.7071 -0.7071 0.7071 0.7071 24.3378 93.5925)" fill-rule="evenodd" clip-rule="evenodd" fill="#FFFFFF" width="2.331" height="2.331"/>
		<path fill-rule="evenodd" clip-rule="evenodd" fill="#FFFFFF" d="M42.395,4.295c-0.4,0.434-0.883,0.65-1.45,0.65
			c-0.567,0-1.067-0.217-1.5-0.65c-0.4-0.4-0.6-0.884-0.6-1.45s0.2-1.066,0.6-1.5c0.433-0.399,0.933-0.6,1.5-0.6
			c0.566,0,1.05,0.2,1.45,0.6c0.434,0.434,0.65,0.934,0.65,1.5S42.829,3.895,42.395,4.295z"/>
		<path fill-rule="evenodd" clip-rule="evenodd" fill="#FFFFFF" d="M71.145,23.395c-0.2,0.2-0.45,0.301-0.75,0.301
			c-0.3,0-0.55-0.101-0.75-0.301c-0.2-0.199-0.3-0.449-0.3-0.75c0-0.3,0.1-0.55,0.3-0.75c0.2-0.199,0.45-0.3,0.75-0.3
			c0.3,0,0.55,0.101,0.75,0.3c0.2,0.2,0.3,0.45,0.3,0.75C71.445,22.945,71.345,23.195,71.145,23.395z"/>
		<path fill-rule="evenodd" clip-rule="evenodd" fill="#FFFFFF" d="M29.095,33.445c-0.3,0.3-0.667,0.449-1.1,0.449
			s-0.8-0.149-1.1-0.449c-0.3-0.301-0.45-0.667-0.45-1.101s0.15-0.8,0.45-1.1c0.3-0.3,0.667-0.45,1.1-0.45s0.8,0.15,1.1,0.45
			c0.3,0.3,0.45,0.666,0.45,1.1S29.395,33.145,29.095,33.445z"/>
		<path fill-rule="evenodd" clip-rule="evenodd" fill="#FFFFFF" d="M77.295,49.545c-0.267,0.3-0.6,0.45-1,0.45
			c-0.4,0-0.75-0.15-1.05-0.45c-0.267-0.267-0.4-0.6-0.4-1s0.133-0.75,0.4-1.05c0.3-0.267,0.65-0.4,1.05-0.4
			c0.4,0,0.733,0.134,1,0.4c0.3,0.3,0.45,0.649,0.45,1.05S77.595,49.278,77.295,49.545z"/>
		<path fill-rule="evenodd" clip-rule="evenodd" fill="#FFFFFF" d="M106.895,4.595c-0.2,0.233-0.467,0.351-0.8,0.351
			c-0.333,0-0.617-0.117-0.85-0.351c-0.2-0.2-0.3-0.467-0.3-0.8s0.1-0.616,0.3-0.85c0.233-0.2,0.517-0.301,0.85-0.301
			c0.333,0,0.6,0.101,0.8,0.301c0.233,0.233,0.35,0.517,0.35,0.85S107.128,4.395,106.895,4.595z"/>
		<path fill-rule="evenodd" clip-rule="evenodd" fill="#FFFFFF" d="M5.745,32.695c-0.2,0.199-0.45,0.3-0.75,0.3
			s-0.55-0.101-0.75-0.3c-0.2-0.2-0.3-0.45-0.3-0.75c0-0.301,0.1-0.551,0.3-0.75c0.2-0.2,0.45-0.301,0.75-0.301
			s0.55,0.101,0.75,0.301c0.2,0.199,0.3,0.449,0.3,0.75C6.045,32.245,5.945,32.495,5.745,32.695z"/>
		<path fill-rule="evenodd" clip-rule="evenodd" fill="#FFFFFF" d="M134.245,35.295c-0.2,0.2-0.45,0.3-0.75,0.3s-0.55-0.1-0.75-0.3
			s-0.3-0.45-0.3-0.75s0.1-0.55,0.3-0.75s0.45-0.3,0.75-0.3s0.55,0.1,0.75,0.3s0.3,0.45,0.3,0.75S134.445,35.095,134.245,35.295z"/>
		<path fill-rule="evenodd" clip-rule="evenodd" fill="#FFFFFF" d="M61.395,172.645c-0.333,0.367-0.75,0.551-1.25,0.551
			s-0.933-0.184-1.3-0.551c-0.333-0.333-0.5-0.75-0.5-1.25s0.167-0.933,0.5-1.3c0.367-0.333,0.8-0.5,1.3-0.5s0.917,0.167,1.25,0.5
			c0.367,0.367,0.55,0.8,0.55,1.3S61.762,172.312,61.395,172.645z"/>
		<path fill-rule="evenodd" clip-rule="evenodd" fill="#FFFFFF" d="M56.172,189.217c-0.913,0.984-2.039,1.477-3.374,1.477
			s-2.495-0.492-3.479-1.477c-0.914-0.912-1.371-2.036-1.371-3.373c0-1.336,0.457-2.495,1.371-3.479
			c0.984-0.912,2.144-1.37,3.479-1.37s2.461,0.458,3.374,1.37c0.984,0.984,1.477,2.144,1.477,3.479
			C57.649,187.181,57.157,188.305,56.172,189.217z"/>
		<path fill-rule="evenodd" clip-rule="evenodd" fill="#FFFFFF" d="M71.545,191.645c-0.533,0.533-1.167,0.801-1.9,0.801
			s-1.367-0.268-1.9-0.801s-0.8-1.166-0.8-1.899s0.267-1.367,0.8-1.9s1.167-0.8,1.9-0.8s1.367,0.267,1.9,0.8
			c0.534,0.533,0.8,1.167,0.8,1.9S72.079,191.111,71.545,191.645z"/>
		<path fill-rule="evenodd" clip-rule="evenodd" fill="#FFFFFF" d="M65.745,202.995c-0.2,0.233-0.45,0.35-0.75,0.35
			s-0.567-0.116-0.8-0.35c-0.2-0.2-0.3-0.45-0.3-0.75s0.1-0.567,0.3-0.8c0.233-0.2,0.5-0.301,0.8-0.301s0.55,0.101,0.75,0.301
			c0.233,0.232,0.35,0.5,0.35,0.8S65.979,202.795,65.745,202.995z"/>
		<path fill-rule="evenodd" clip-rule="evenodd" fill="#FFFFFF" d="M101.345,23.845c-0.934,0.967-2.083,1.45-3.45,1.45
			s-2.533-0.483-3.5-1.45c-0.933-0.934-1.4-2.083-1.4-3.45c0-1.366,0.467-2.533,1.4-3.5c0.967-0.933,2.133-1.399,3.5-1.399
			s2.517,0.467,3.45,1.399c0.967,0.967,1.45,2.134,1.45,3.5C102.795,21.762,102.312,22.911,101.345,23.845z"/>
		<path fill-rule="evenodd" clip-rule="evenodd" fill="#FFFFFF" d="M53.395,28.945c-1.3,1.3-2.867,1.949-4.7,1.949
			c-1.833,0-3.4-0.649-4.7-1.949c-1.3-1.301-1.95-2.867-1.95-4.7c0-1.834,0.65-3.4,1.95-4.7s2.867-1.95,4.7-1.95
			c1.833,0,3.4,0.65,4.7,1.95c1.3,1.3,1.95,2.866,1.95,4.7C55.345,26.078,54.695,27.645,53.395,28.945z"/>
		<g>
			<polygon fill-rule="evenodd" clip-rule="evenodd" fill="#CDCCCC" points="0.045,54.045 136.845,54.045 68.445,122.445 			"/>
		</g>
		<g>
			<polygon fill-rule="evenodd" clip-rule="evenodd" fill="#2F529A" points="88.945,142.945 70.545,124.545 88.945,106.145 			"/>
		</g>
		<g>
			<polygon fill-rule="evenodd" clip-rule="evenodd" fill="#FDBA12" points="86.845,145.045 47.945,145.045 47.945,106.145 			"/>
		</g>
		<g>
			<polygon fill-rule="evenodd" clip-rule="evenodd" fill="#B32C24" points="88.945,186.945 50.045,148.045 88.945,148.045 			"/>
		</g>
	</g>
	<g>
		<path fill-rule="evenodd" clip-rule="evenodd" fill="#FFFFFF" d="M197.745,55.345l-18.9,57.2h-1.5l-18.85-57.2h1.2l18.5,56
			l18.2-56H197.745z M237.045,56.495h-25.05v25.2h21.6v1.1h-21.6v28.55h25.9v1.2h-27.051v-57.2h26.351L237.045,56.495z
			 M187.095,127.145h-23.45v25.2h20.3v1.05h-20.3v27.101h-1.1v-54.5h24.7L187.095,127.145z M201.295,125.995v54.5h-1.1v-54.5
			H201.295z M222.545,125.995v53.35h23.15l-0.25,1.15h-24v-54.5H222.545z M356.646,55.095v57.45h-5.101l-28.55-53
			c0.366,4.934,0.55,11.217,0.55,18.85v34.15h-3.75v-57.45h5.101l28.449,53c-0.333-5.533-0.5-11.133-0.5-16.8v-36.2H356.646z
			 M264.095,54.245c3.467,0,6.417,0.533,8.851,1.6c2.434,1.033,4.833,2.566,7.2,4.601l-2.45,2.699
			c-2.134-1.966-4.233-3.366-6.3-4.199c-2.067-0.834-4.467-1.25-7.2-1.25c-3.767,0-6.783,0.933-9.05,2.8
			c-2.267,1.899-3.4,4.383-3.4,7.45c0,2.1,0.434,3.866,1.3,5.3c0.867,1.399,2.267,2.633,4.2,3.7c1.934,1.066,4.667,2.133,8.2,3.199
			c3.866,1.167,6.967,2.417,9.3,3.75c2.366,1.367,4.15,3.101,5.35,5.2c1.2,2.066,1.801,4.7,1.801,7.9s-0.767,6.066-2.301,8.6
			c-1.566,2.5-3.733,4.434-6.5,5.8c-2.8,1.4-6.033,2.101-9.699,2.101c-3.7,0-7-0.634-9.9-1.9c-2.9-1.233-5.583-2.983-8.05-5.25
			l2.45-2.6c2.166,2,4.466,3.533,6.899,4.6c2.467,1.066,5.3,1.601,8.5,1.601c4.334,0,7.834-1.15,10.5-3.45
			c2.733-2.267,4.101-5.4,4.101-9.4c0-2.467-0.45-4.5-1.351-6.1c-0.899-1.601-2.35-2.983-4.35-4.15
			c-1.967-1.133-4.75-2.267-8.351-3.399c-5.866-1.767-10.017-3.801-12.449-6.101c-2.467-2.3-3.7-5.399-3.7-9.3
			c0-2.667,0.7-5.017,2.1-7.05c1.367-2.066,3.283-3.717,5.75-4.95C258.045,54.845,260.896,54.245,264.095,54.245z M300.545,55.095
			v57.45h-4v-57.45H300.545z M276.545,127.145h-16.95v53.351h-1.149v-53.351h-16.95v-1.149h35.2L276.545,127.145z M313.095,129.645
			c2.801,2.4,4.2,5.884,4.2,10.45c0,4.334-1.217,7.634-3.649,9.9c-2.4,2.267-5.534,3.633-9.4,4.1l15.25,26.4h-1.4l-15.149-26.25
			h-13.75v26.25h-1.101v-54.5h11.5C305.795,125.995,310.295,127.212,313.095,129.645z M299.445,127.145h-10.25v26h12.399
			c4.334,0,7.817-1.066,10.45-3.199c2.7-2.134,4.05-5.417,4.05-9.851c0-4.267-1.3-7.5-3.899-9.7
			C309.595,128.229,305.345,127.145,299.445,127.145z M350.195,125.245c4.3,0,8.033,1.083,11.2,3.25c3.166,2.2,5.616,5.399,7.35,9.6
			c1.7,4.2,2.55,9.267,2.55,15.2c0,8.8-1.85,15.65-5.55,20.55c-3.7,4.9-8.884,7.351-15.55,7.351c-4.267,0-8-1.101-11.2-3.301
			c-3.167-2.133-5.616-5.283-7.35-9.449c-1.667-4.167-2.5-9.167-2.5-15c0-5.801,0.866-10.834,2.6-15.101
			c1.767-4.267,4.233-7.517,7.4-9.75C342.345,126.361,346.028,125.245,350.195,125.245z M330.345,153.445
			c0,5.6,0.801,10.416,2.4,14.449c1.667,4.034,3.983,7.084,6.95,9.15c2.967,2.1,6.467,3.15,10.5,3.15c6.333,0,11.233-2.334,14.7-7
			c3.466-4.7,5.199-11.334,5.199-19.9c0-8.634-1.783-15.283-5.35-19.95c-3.533-4.666-8.384-7-14.55-7c-4.033,0-7.533,1.05-10.5,3.15
			c-2.967,2.166-5.283,5.267-6.95,9.3C331.146,142.861,330.345,147.745,330.345,153.445z"/>
	</g>
</g>
</svg>
